<?xml version="1.0" standalone="no"?>
<!DOCTYPE svg PUBLIC "-//W3C//DTD SVG 20010904//EN"
 "http://www.w3.org/TR/2001/REC-SVG-20010904/DTD/svg10.dtd">
<svg version="1.0" xmlns="http://www.w3.org/2000/svg"
 width="1920.000000pt" height="1080.000000pt" viewBox="0 0 1920.000000 1080.000000"
 preserveAspectRatio="xMidYMid meet">
<metadata>
Created by potrace 1.16, written by Peter Selinger 2001-2019
</metadata>
<g transform="translate(0.000000,1080.000000) scale(0.100000,-0.100000)"
fill="#000000" stroke="none">
<path d="M0 5400 l0 -5400 9600 0 9600 0 0 5400 0 5400 -9600 0 -9600 0 0
-5400z m8731 -2262 c-19 -244 -20 -257 -36 -478 -8 -118 -19 -273 -25 -345 -5
-71 -15 -206 -21 -300 -11 -163 -19 -222 -19 -139 0 43 75 1102 90 1279 5 61
10 116 10 124 0 8 3 12 6 8 3 -3 1 -70 -5 -149z m-4174 -71 c30 4 43 2 43 -6
0 -7 5 -9 11 -5 21 12 314 18 333 6 15 -9 46 -10 51 -2 7 11 260 1 263 -10 2
-6 -68 -10 -197 -10 -186 0 -200 1 -195 18 5 15 4 15 -9 -1 -18 -21 8 -21
-520 -18 -290 1 -368 4 -365 14 3 8 33 13 92 15 69 2 86 0 80 -10 -5 -10 -4
-11 7 0 16 15 185 17 194 2 4 -6 16 -8 28 -4 11 4 45 6 74 5 41 -1 52 2 47 12
-5 9 -4 9 6 0 8 -8 29 -10 57 -6z m-1544 -54 c-3 -7 2 -13 10 -13 8 0 25 -9
38 -21 13 -11 18 -18 11 -14 -10 5 -11 0 -6 -19 4 -17 2 -26 -6 -26 -7 0 -10
-7 -6 -15 5 -14 -28 -45 -49 -45 -5 1 2 8 18 16 40 22 33 25 -12 6 -30 -13
-36 -19 -25 -25 12 -7 13 -12 3 -23 -8 -10 -35 -14 -98 -14 -59 0 -81 3 -71
10 9 6 10 10 3 10 -6 0 -15 -4 -18 -10 -3 -5 -15 -10 -26 -10 -11 0 -17 5 -14
10 4 6 11 7 17 4 7 -4 8 -2 4 5 -6 9 -14 8 -32 -4 -27 -18 -31 -14 -9 9 12 12
30 14 72 10 31 -2 59 -6 62 -8 3 -2 24 0 46 4 36 6 34 7 -23 7 -64 0 -102 19
-102 50 0 9 -5 11 -12 7 -8 -5 -7 0 2 15 16 24 110 85 96 62 -7 -10 -3 -11 15
-5 59 20 109 10 139 -28 15 -19 16 -19 16 1 0 11 -3 19 -6 19 -14 -3 -59 26
-53 35 3 5 -3 6 -17 2 -15 -5 -20 -4 -16 4 10 15 55 10 49 -6z m10362 3 c68
-25 106 -48 115 -71 10 -26 10 -74 0 -73 -3 1 -12 -1 -20 -5 -8 -3 -22 -8 -30
-11 -8 -3 -4 -5 10 -5 68 3 90 -1 90 -16 0 -13 -19 -15 -127 -13 -106 3 -128
6 -128 18 0 11 10 14 40 13 l40 -3 -47 15 c-34 11 -52 24 -63 45 -9 18 -11 31
-5 35 6 3 10 0 10 -7 0 -7 6 -4 12 7 6 11 18 26 26 33 9 6 11 12 5 12 -7 0
-15 -5 -18 -10 -4 -6 -11 -8 -16 -5 -5 3 -7 0 -6 -7 2 -7 2 -9 -1 -5 -2 4 -11
2 -20 -4 -10 -7 -7 -2 6 12 20 21 30 24 90 22 56 -1 62 1 37 8 -16 6 -35 11
-42 13 -7 1 -16 6 -20 10 -8 8 31 3 62 -8z m-9807 -34 c2 -7 8 -10 12 -7 5 3
12 0 16 -6 5 -8 3 -9 -6 -4 -9 5 -10 2 -5 -14 4 -13 1 -28 -5 -36 -7 -8 -9
-15 -5 -15 4 0 2 -7 -5 -15 -7 -8 -17 -15 -23 -15 -6 0 -2 7 9 15 17 15 16 15
-12 1 -18 -9 -50 -18 -73 -22 -23 -4 -41 -10 -41 -14 0 -4 20 -4 45 1 47 9 79
3 69 -12 -3 -5 -12 -9 -20 -9 -10 0 -12 5 -8 13 6 9 5 9 -8 0 -8 -7 -19 -9
-23 -5 -5 4 -5 1 -1 -5 6 -10 -17 -13 -101 -12 -74 1 -97 4 -73 9 34 7 34 7
-12 9 -25 0 -49 -4 -51 -9 -3 -6 -4 -5 -3 2 4 18 116 24 127 6 6 -9 9 -9 9 -1
0 6 9 9 23 6 18 -4 19 -3 7 6 -8 6 -24 11 -36 11 -29 0 -56 32 -47 56 6 17 5
18 -13 4 -10 -8 -6 0 10 18 17 18 35 32 40 32 6 -1 2 -8 -9 -18 -17 -14 -31
-52 -19 -52 5 0 38 63 39 73 0 17 26 22 106 22 55 -1 84 -5 87 -13z m10383 -8
c17 -8 35 -26 41 -39 6 -13 15 -22 20 -19 6 4 8 -2 6 -12 -2 -11 -18 -26 -37
-35 l-34 -16 57 5 c54 4 86 -7 86 -29 0 -5 -67 -9 -149 -9 -122 0 -150 3 -154
15 -8 19 1 23 45 20 21 -1 35 2 32 7 -3 4 -14 8 -24 8 -23 0 -80 47 -80 65 0
8 5 17 12 21 8 5 9 2 5 -9 -4 -10 10 -1 30 19 33 33 39 36 75 30 22 -4 53 -13
69 -22z m-2244 -134 c-3 -11 -1 -23 4 -26 5 -3 9 1 9 8 0 11 2 11 9 0 4 -7 14
-12 22 -10 8 2 14 -4 14 -12 0 -8 4 -21 9 -28 4 -7 6 -15 4 -17 -7 -7 -456 -8
-467 -1 -32 20 17 26 214 26 138 0 216 4 220 10 4 7 -7 10 -32 9 -46 -3 -73 9
-52 22 7 4 18 4 24 -1 8 -7 12 -5 12 5 0 8 -4 15 -9 15 -5 0 -6 5 -3 10 11 18
27 11 22 -10z m-7853 -529 c-3 -3 -9 -6 -12 -6 -62 -5 -203 -49 -273 -86 -64
-34 -134 -90 -150 -120 -5 -11 10 1 34 25 51 50 178 116 283 146 94 27 273 36
342 17 28 -8 52 -11 52 -7 0 13 -49 22 -160 30 l-105 8 139 -2 c100 -1 141 -5
144 -14 2 -7 8 -10 13 -6 5 3 9 0 9 -5 0 -6 7 -11 15 -11 8 0 15 -5 15 -12 0
-6 3 -8 7 -5 3 4 12 -1 19 -11 25 -32 14 -32 -31 0 -25 17 -47 29 -50 26 -3
-3 11 -14 32 -25 77 -40 104 -123 63 -191 -25 -41 -25 -55 0 -22 11 14 20 20
20 14 0 -6 -9 -19 -20 -29 -11 -10 -20 -14 -20 -10 0 4 -8 1 -17 -7 -19 -17
-153 -80 -153 -72 0 2 -17 -3 -37 -11 -21 -9 -53 -18 -73 -21 -19 -3 -51 -10
-70 -16 -20 -7 -109 -12 -210 -12 -152 -1 -179 1 -203 17 -54 35 -73 91 -54
160 5 19 4 26 -2 23 -11 -7 6 27 29 60 19 25 149 105 210 127 79 30 229 63
214 48z m11260 -31 c-53 -18 -108 -50 -101 -57 3 -2 20 5 38 16 150 89 501 47
668 -80 29 -22 55 -38 58 -36 7 8 -60 55 -129 93 -35 18 -58 34 -53 34 6 0 42
-18 82 -39 39 -22 75 -36 79 -33 4 4 4 2 1 -4 -3 -6 7 -24 24 -40 29 -27 66
-84 55 -84 -3 0 -13 14 -21 31 -9 17 -19 29 -21 26 -3 -3 4 -20 15 -38 32 -53
28 -108 -12 -153 -39 -46 -64 -51 -227 -50 -171 1 -362 45 -501 115 -31 15
-59 35 -63 44 -3 9 -10 14 -15 10 -5 -3 -13 0 -17 6 -5 8 -3 9 6 4 10 -6 11
-4 5 11 -20 45 -18 95 5 126 27 37 20 49 -9 12 -11 -15 -21 -23 -21 -17 0 33
139 123 190 122 8 0 -8 -9 -36 -19z m-7666 -12 c15 -21 20 -77 6 -89 -7 -5
-61 -8 -130 -7 l-119 3 3 40 c5 57 21 65 133 65 65 0 100 -4 107 -12z m363
-35 c3 -24 1 -47 -5 -53 -11 -11 -196 -14 -233 -4 -19 5 -21 11 -16 38 13 67
13 67 136 64 l112 -3 6 -42z m-397 -124 c11 -12 14 -88 3 -96 -15 -11 -207
-18 -237 -8 -13 4 -19 13 -16 23 2 9 7 30 10 45 4 16 16 32 29 37 21 8 203 8
211 -1z m367 -39 c5 -35 3 -48 -9 -57 -19 -15 -188 -18 -225 -4 -22 9 -24 13
-17 49 11 63 11 63 133 60 l112 -3 6 -45z m1359 -133 c3 -32 3 -60 1 -63 -2
-2 -76 -4 -163 -4 -118 0 -160 3 -163 13 -3 6 -2 32 3 57 l7 45 85 5 c47 3
117 5 155 5 l70 0 5 -58z m1426 8 c7 -27 9 -53 5 -58 -4 -4 -84 -6 -177 -5
l-169 3 3 45 c4 75 -5 71 168 68 l157 -3 13 -50z m645 28 c6 -16 11 -41 12
-58 l2 -30 -164 -3 c-104 -2 -168 1 -176 8 -12 10 -11 62 0 98 3 9 44 12 160
12 l155 0 11 -27z m-8744 -299 c108 -108 320 -199 557 -239 49 -8 102 -15 119
-15 50 0 26 -8 -40 -13 -35 -3 -63 -2 -63 2 0 3 -19 5 -41 3 -23 -3 -39 0 -36
4 3 5 -18 10 -47 11 -64 2 -199 44 -291 90 -84 43 -166 104 -160 120 2 6 -4
17 -13 25 -15 12 -16 11 -3 -4 24 -31 1 -19 -27 14 -43 51 -62 86 -55 104 3
10 2 15 -3 12 -5 -3 -10 8 -10 24 -1 28 2 25 25 -23 14 -30 54 -81 88 -115z
m2308 60 c-34 -27 -190 -109 -277 -144 -31 -13 -55 -27 -52 -31 2 -4 -1 -11
-7 -15 -8 -5 -9 -3 -4 6 6 10 4 12 -9 7 -10 -4 -22 -7 -27 -7 -6 0 -8 -3 -6
-7 3 -5 -5 -9 -16 -9 -12 -1 -38 -7 -57 -13 -19 -5 -71 -19 -115 -30 -85 -22
-136 -27 -73 -7 20 6 37 15 37 21 0 5 37 22 83 37 46 16 90 31 98 35 8 4 22 8
30 9 34 7 90 29 90 37 0 5 4 6 9 3 5 -3 68 23 140 59 72 35 137 62 145 59 8
-3 17 -1 21 5 3 6 9 11 13 11 4 -1 -6 -12 -23 -26z m11661 -277 c-68 -27 -206
-61 -311 -76 -137 -20 -402 -21 -525 -2 -140 21 -355 65 -337 69 9 2 15 8 12
13 -4 5 -1 9 4 9 6 0 11 -5 11 -11 0 -5 4 -8 8 -5 4 2 53 -2 107 -10 115 -18
140 -19 370 -29 110 -5 218 -3 305 4 133 12 150 15 285 49 48 12 74 14 81 7 9
-7 6 -12 -10 -18z m-15140 -136 c-5 -8 30 -19 76 -24 9 -1 15 -4 13 -8 -3 -3
7 -17 22 -30 l26 -24 -17 30 c-17 29 -17 29 0 6 12 -16 17 -37 15 -65 -5 -73
-41 -118 -145 -180 -156 -93 -417 -128 -520 -68 -146 85 34 288 309 348 17 3
73 10 125 14 52 3 96 7 98 8 2 1 1 -2 -2 -7z m12284 -23 c19 -6 60 -23 90 -37
30 -14 61 -25 67 -24 7 0 11 -3 8 -7 -6 -9 59 -72 67 -65 3 4 9 1 14 -6 5 -8
3 -10 -6 -4 -8 5 -11 3 -8 -6 3 -8 9 -13 14 -12 17 3 9 -101 -10 -129 -36 -54
-170 -95 -276 -84 -156 16 -304 87 -345 167 -17 33 -20 105 -4 114 6 4 8 13 5
20 -3 8 3 19 12 27 16 12 16 11 2 -7 -14 -20 -14 -20 7 -1 13 10 20 23 16 29
-3 6 -1 7 5 3 6 -4 25 0 41 9 65 33 213 39 301 13z m4600 -191 c0 8 37 11 134
10 74 -1 132 -5 130 -8 -2 -4 3 -12 11 -19 23 -19 18 -37 -11 -43 -15 -2 -79
-5 -142 -6 -64 -1 -118 -4 -121 -7 -2 -2 54 -4 125 -5 80 -1 120 -4 104 -9
-20 -6 -14 -8 28 -9 28 -1 52 -4 52 -8 0 -12 -291 -6 -303 6 -13 13 -37 80
-37 105 0 20 0 20 15 0 8 -10 15 -14 15 -7z m-6295 -177 c-18 -20 -19 -41 -2
-59 10 -11 9 -12 -1 -6 -11 6 -12 3 -3 -14 11 -20 14 -20 34 -6 25 17 37 19
37 5 0 -5 -5 -10 -10 -10 -17 0 -95 -61 -92 -72 1 -5 -2 -7 -7 -3 -6 3 -28 -4
-51 -15 -22 -11 -40 -17 -40 -13 0 10 37 108 55 150 8 17 15 35 15 40 0 4 12
16 27 25 20 12 31 14 41 6 10 -9 10 -14 -3 -28z m-10907 -110 c99 -34 124 -88
81 -177 -36 -75 -147 -153 -289 -203 -106 -37 -136 -43 -240 -44 -135 -2 -220
43 -220 116 0 45 44 122 97 167 72 62 222 132 319 147 21 3 41 8 43 10 13 13
158 2 209 -16z m12754 -1 c29 -7 77 -22 107 -35 29 -13 57 -21 62 -18 5 3 8 0
7 -8 -2 -7 4 -13 12 -13 21 -1 41 -15 35 -24 -5 -9 33 -47 44 -44 3 1 5 -4 3
-12 -1 -7 3 -17 9 -21 8 -5 9 -3 4 7 -5 8 -5 11 0 7 5 -5 10 -23 12 -40 2 -18
7 -34 12 -36 18 -6 -39 -102 -76 -126 -94 -62 -254 -70 -393 -20 -39 14 -75
22 -80 19 -6 -4 -9 -1 -8 6 2 6 -3 14 -11 17 -9 3 -11 0 -6 -9 5 -8 4 -11 -1
-6 -5 5 -9 14 -9 20 0 7 -8 11 -18 11 -9 -1 -15 2 -12 6 2 4 -10 20 -27 36
-17 16 -39 49 -50 72 -18 39 -18 52 -6 99 1 5 15 19 30 31 15 13 28 30 28 38
0 8 3 13 8 12 18 -4 61 15 55 25 -3 5 -1 7 5 4 5 -4 21 -3 34 2 33 14 167 13
230 0z m-1616 -151 c-6 -4 -8 -8 -4 -8 3 0 14 -3 24 -7 13 -5 15 -3 9 8 -5 8
-5 11 1 6 5 -5 9 -12 9 -16 0 -12 53 -71 64 -71 6 0 11 -1 11 -3 0 -1 4 -17 9
-35 11 -37 -1 -43 -17 -9 -10 20 -11 18 -11 -19 -1 -49 7 -60 26 -36 13 15 13
15 3 -5 -15 -31 -78 -62 -136 -66 -123 -10 -254 57 -254 127 1 36 23 81 41 81
7 0 14 6 17 14 3 8 0 11 -7 7 -6 -4 -11 -2 -11 3 0 6 1 11 3 11 1 0 20 7 42
15 41 14 204 17 181 3z m3212 -288 c4 10 6 9 12 -1 7 -10 11 -10 24 0 13 11
19 11 33 0 14 -12 15 -12 9 -1 -7 11 -4 12 12 3 27 -15 42 -14 38 2 -1 6 -1 9
1 4 3 -4 10 -4 15 -1 7 4 8 2 4 -4 -4 -7 -2 -12 3 -12 6 0 11 5 11 10 0 6 5
10 11 10 5 0 7 -4 4 -10 -3 -6 4 -10 17 -10 19 0 20 2 8 11 -12 8 -10 9 10 7
14 -2 29 -7 33 -13 6 -6 10 -5 14 3 4 10 8 10 21 0 13 -11 14 -11 7 1 -6 10
-4 12 6 6 20 -13 49 -13 49 -1 0 7 3 7 8 1 10 -14 82 -17 82 -4 0 8 5 8 15 -1
11 -9 15 -9 15 -1 0 7 5 9 13 4 16 -10 39 -10 55 1 6 5 12 5 12 0 0 -5 16 -9
35 -9 19 0 35 4 35 8 0 5 6 5 13 0 19 -13 107 -12 100 1 -5 8 -3 8 8 0 17 -13
49 -14 49 -2 0 5 4 7 9 4 18 -11 81 -14 81 -4 0 7 4 7 13 0 14 -12 66 -11 86
2 10 6 12 5 7 -2 -4 -7 -1 -12 9 -12 10 0 13 5 9 13 -5 8 -2 8 9 -2 9 -7 17
-10 17 -5 0 5 29 9 65 9 36 0 65 -4 65 -9 0 -6 4 -6 10 0 6 6 35 7 70 4 33 -3
60 -3 60 0 0 9 174 5 189 -4 9 -6 12 -5 8 1 -4 6 25 9 78 9 47 -1 85 -5 85
-10 0 -5 7 -3 15 4 12 10 18 10 32 -1 11 -10 14 -10 9 -2 -9 17 16 17 32 1 9
-9 12 -9 12 0 0 6 11 11 25 10 14 -1 25 -6 25 -11 0 -5 7 -3 17 4 20 17 16 17
36 0 10 -7 17 -9 17 -4 0 11 40 11 57 0 6 -4 14 -1 16 5 4 10 8 9 16 -2 6 -8
11 -10 11 -4 0 18 245 13 262 -5 11 -12 10 -13 -2 -6 -13 8 -13 6 -1 -8 12
-16 -71 -17 -1309 -19 -1256 -3 -1322 -2 -1331 15 -6 9 -7 22 -4 27 7 11 53 3
73 -13 9 -7 11 -6 7 5 -4 10 2 14 25 13 16 0 30 -3 30 -7 0 -4 12 -3 26 2 14
6 23 6 20 1 -3 -4 8 -8 24 -7 17 1 30 5 30 11 0 5 5 4 11 -2 8 -8 20 -8 35 -3
15 6 26 5 30 -1 4 -8 9 -7 15 2 6 10 9 11 9 2 0 -7 11 -13 25 -13 19 0 23 4
18 18 -6 15 -5 15 12 -2 14 -13 20 -15 23 -6z m2591 -145 c6 -3 11 -3 11 2 0
10 73 9 89 -1 6 -4 11 -1 11 6 0 10 2 10 9 -1 5 -8 11 -9 15 -3 3 5 22 6 43 3
21 -4 211 -8 423 -9 509 -2 489 -2 465 -12 -23 -9 -1129 -3 -1160 7 -18 5 -18
7 -2 12 21 8 82 5 96 -4z m-3117 -7 c-11 -11 -1097 -23 -1120 -12 -10 6 86 11
238 14 423 8 891 7 882 -2z"/>
<path d="M3859 2206 c-2 -2 -22 -6 -44 -10 -60 -8 -102 -22 -150 -50 -49 -29
-95 -80 -94 -104 0 -14 2 -14 6 -2 10 27 44 70 55 70 6 0 3 -10 -8 -22 -13
-16 -14 -19 -2 -10 12 10 18 10 23 1 4 -6 2 -15 -6 -19 -18 -12 7 -59 38 -73
12 -5 21 -13 19 -16 -6 -9 110 -7 164 3 51 9 113 47 144 89 19 26 19 30 6 55
-23 40 -75 63 -137 59 -29 -1 -53 1 -53 4 0 12 142 10 180 -2 19 -7 44 -19 55
-28 20 -16 20 -16 1 6 -27 33 -175 69 -197 49z"/>
<path d="M15225 2184 c-197 -72 -20 -254 248 -254 75 0 107 12 64 24 -22 6
-22 6 5 23 35 22 53 60 37 79 -7 8 -9 17 -6 20 3 3 10 -4 17 -15 11 -22 3 -48
-29 -85 -15 -18 -15 -18 9 -11 14 4 31 10 39 13 9 3 12 1 7 -6 -4 -7 -16 -12
-27 -12 -10 0 -19 -4 -19 -10 0 -26 65 13 79 48 21 51 -18 107 -108 152 -38
19 -47 20 -68 9 -20 -11 -26 -10 -41 6 -9 10 -11 15 -4 11 6 -4 12 -3 12 2 0
25 -152 29 -215 6z"/>
<path d="M1044 1275 c-97 -24 -190 -80 -231 -140 -28 -41 -29 -65 -3 -92 32
-35 84 -46 194 -41 85 5 114 11 181 39 97 41 175 111 175 157 0 32 -30 65 -73
81 -37 14 -179 12 -243 -4z"/>
<path d="M13360 1278 c-80 -23 -131 -87 -110 -139 13 -32 57 -75 66 -66 10 10
45 -13 39 -24 -4 -5 9 -16 28 -24 45 -19 118 -35 112 -25 -2 4 -19 10 -36 14
-47 9 -31 14 21 7 25 -3 80 -3 124 1 62 6 86 13 112 33 19 14 34 22 34 16 0
-5 -12 -19 -26 -30 -15 -12 -21 -21 -15 -21 20 0 61 48 61 70 0 34 -37 97 -74
125 -81 62 -238 91 -336 63z"/>
<path d="M710 789 c-109 -21 -227 -86 -272 -149 -73 -101 4 -169 175 -156 62
5 89 14 187 63 143 72 134 68 125 52 -5 -8 4 -3 19 11 33 29 56 71 56 99 0 25
-51 68 -98 81 -43 12 -128 11 -192 -1z"/>
<path d="M13645 791 c22 -5 33 -9 24 -10 -15 -1 -15 -7 -7 -43 6 -24 15 -47
19 -52 5 -6 9 -14 9 -19 0 -5 -17 6 -38 24 -88 78 -93 81 -121 75 -19 -5 -22
-4 -11 4 8 5 24 10 34 10 11 0 17 3 13 6 -13 13 -72 -10 -108 -43 -33 -30 -39
-42 -39 -75 0 -33 7 -46 48 -86 30 -31 68 -55 105 -70 60 -22 105 -30 79 -13
-8 5 25 8 81 8 80 -1 101 3 143 24 27 13 54 35 60 47 8 17 13 20 17 10 4 -7 4
-1 2 13 -5 37 -31 84 -62 113 -40 38 -138 73 -218 79 -48 4 -58 3 -30 -2z"/>
</g>
</svg>
